<svg xmlns="http://www.w3.org/2000/svg" version="1.0" width="170.000000pt" height="170.000000pt" viewBox="0 0 170.000000 170.000000" preserveAspectRatio="xMidYMid meet">
  <defs>
    <style>.wdn-1{fill:#bf311a;}</style>
  </defs>
    <path class="wdn-1" transform="translate(0.000000,170.000000) scale(0.100000,-0.100000)" fill="#000000" stroke="none" d="M728 1660 c-88 -16 -163 -42 -253 -88 -74 -38 -108 -64 -191 -146 -83 -83 -108 -117 -147 -192 -72 -141 -91 -223 -91 -384 0 -156 14 -220 75 -347 103 -216 305 -381 544 -444 111 -30 279 -30 390 0 388 104 646 453 622 841 -8 121 -36 220 -95 335 -38 74 -64 108 -146 191 -83 82 -117 108 -191 146 -127 65 -215 88 -355 93 -63 2 -136 0 -162 -5z m-206 -577 c8 -10 72 -123 142 -251 82 -153 126 -244 126 -264 0 -32 -56 -134 -79 -143 -8 -3 -21 -3 -30 0 -19 6 -351 613 -351 642 0 30 7 33 95 33 66 0 85 -3 97 -17z m304 9 c17 -10 274 -489 274 -508 0 -10 -17 -46 -37 -81 -34 -57 -41 -64 -66 -61 -26 3 -41 27 -192 303 -152 278 -176 330 -158 348 9 9 165 9 179 -1z m562 -23 c2 -20 -25 -72 -98 -193 -136 -222 -125 -222 -248 3 -86 158 -102 198 -85 215 4 3 102 5 217 4 l211 -3 3 -26z"></path>
</svg>

